<?xml version="1.0" standalone="no"?>
<!DOCTYPE svg PUBLIC "-//W3C//DTD SVG 20010904//EN"
 "http://www.w3.org/TR/2001/REC-SVG-20010904/DTD/svg10.dtd">
<svg version="1.0" xmlns="http://www.w3.org/2000/svg"
 width="1000.000000pt" height="1000.000000pt" viewBox="0 0 1000.000000 1000.000000"
 preserveAspectRatio="xMidYMid meet">
<metadata>
Created by potrace 1.14, written by Peter Selinger 2001-2017
</metadata>
<g transform="translate(0.000000,1000.000000) scale(0.100000,-0.100000)"
fill="#000000" stroke="none">
<path d="M0 5000 l0 -5000 5000 0 5000 0 0 5000 0 5000 -5000 0 -5000 0 0
-5000z m2168 178 c-4 -462 -6 -518 -22 -568 -45 -137 -107 -212 -216 -263 -57
-27 -77 -31 -175 -35 -173 -7 -275 27 -372 125 -47 47 -100 147 -110 207 l-6
37 78 -3 78 -3 14 -41 c20 -60 75 -119 141 -151 51 -25 68 -28 152 -27 149 1
213 40 262 161 23 58 23 62 26 566 l3 507 75 0 75 0 -3 -512z m1154 484 c81
-33 158 -106 194 -184 25 -55 29 -74 28 -153 0 -71 -5 -101 -23 -142 -22 -49
-88 -122 -136 -149 -18 -10 -14 -14 37 -39 73 -36 134 -96 167 -165 35 -74 37
-210 4 -282 -29 -63 -97 -134 -158 -165 -104 -54 -122 -56 -542 -60 l-393 -5
0 687 0 686 383 -3 c372 -3 383 -4 439 -26z m710 -329 l3 -357 380 357 380
356 104 1 105 0 -30 -31 c-16 -17 -145 -139 -286 -272 -141 -132 -254 -246
-250 -252 3 -5 143 -191 310 -412 l303 -403 -94 0 -94 0 -268 355 c-147 196
-271 357 -274 359 -3 2 -70 -55 -148 -127 l-141 -132 -1 -227 -1 -228 -75 0
-75 0 0 685 0 685 75 0 75 0 2 -357z m3213 22 c336 -88 474 -529 264 -844 -47
-71 -135 -141 -217 -172 -72 -27 -238 -38 -321 -19 -87 19 -184 75 -246 141
-93 101 -139 226 -139 379 0 47 6 110 13 140 44 182 180 329 350 376 65 18
225 17 296 -1z m1258 -22 c119 -56 202 -165 226 -297 7 -36 11 -193 11 -388
l0 -328 -74 0 -75 0 -3 348 c-3 340 -3 348 -27 399 -26 59 -93 126 -149 151
-58 25 -185 22 -247 -6 -63 -29 -119 -82 -153 -147 l-27 -50 -3 -347 -3 -348
-74 0 -75 0 0 520 0 520 75 0 75 0 0 -82 0 -81 63 60 c100 96 147 114 292 110
88 -2 108 -6 168 -34z m-3243 -331 c142 -485 142 -485 150 -475 4 4 65 194
135 421 l129 412 82 0 82 0 11 -32 c5 -18 53 -172 106 -343 137 -443 146 -470
155 -454 5 8 61 194 125 414 65 220 121 404 125 408 4 4 41 7 82 5 l74 -3
-161 -515 -162 -515 -88 0 -88 0 -128 408 c-70 225 -130 411 -132 413 -3 3
-17 -35 -32 -83 -15 -48 -73 -234 -129 -413 l-102 -325 -86 -3 -87 -3 -55 173
c-146 461 -266 848 -266 857 0 7 29 11 78 11 l77 0 105 -358z"/>
<path d="M2650 5316 l0 -236 263 0 c210 0 274 3 316 16 204 60 229 330 41 430
-31 17 -65 19 -327 22 l-293 3 0 -235z"/>
<path d="M2652 4703 l3 -238 295 0 c346 0 385 7 456 78 109 109 71 293 -75
365 l-56 27 -313 3 -312 3 2 -238z"/>
<path d="M6999 5227 c-141 -40 -233 -152 -259 -313 -36 -222 86 -425 279 -465
199 -41 372 71 426 276 52 202 -48 432 -213 490 -64 22 -176 28 -233 12z"/>
</g>
</svg>
